<svg id="Layer_1" data-name="Layer 1" xmlns="http://www.w3.org/2000/svg" viewBox="0 0 512 512"><defs><style>.cls-1{fill:#e2e2e3;}</style></defs><path class="cls-1" d="M256,6C117.93,6,6,117.93,6,256S117.93,506,256,506,506,394.07,506,256,394.07,6,256,6Zm77,156.89a5.81,5.81,0,0,1-5.81,5.81H302.33c-17.16,0-20.3,6.69-20.3,19.86V216h43.46a5.82,5.82,0,0,1,5.81,5.82l0,46.85a5.81,5.81,0,0,1-5.81,5.81H282V392.67a5.81,5.81,0,0,1-5.81,5.81H227.74a5.81,5.81,0,0,1-5.81-5.81V274.46H184.78a5.81,5.81,0,0,1-5.81-5.81V221.8a5.82,5.82,0,0,1,5.81-5.82h37.15V183.65c0-42.6,26.83-70.13,68.35-70.13l37,.06a5.82,5.82,0,0,1,5.8,5.81Z"/></svg>